# xmcd CD database file
#
# Track frame offsets:
#	150
#	15594
#	32853
#	64387
#	79870
#	93497
#	121741
#	140467
#	161302
#	182213
#	198819
#	215829
#	230919
#	245337
#
# Disc length: 3456 seconds
#
# Revision: 0
# Processed by: cddbd v1.4PL0 Copyright (c) Steve Scherf et al.
# Submitted via: Feurio! 1.65 - http://www.feurio.com
#
DISCID=c20d7e0e
DTITLE=Ace Moreland - Give It To Get It
DYEAR=2000
DGENRE=Blues Rock
TTITLE0=Give It To Get It
TTITLE1=Hide That Wine
TTITLE2=Homestead Mill
TTITLE3=Love From A Stone
TTITLE4=Stop Draggin' That Chain Around
TTITLE5=Indian Giver
TTITLE6=Dust Bowl Blues
TTITLE7=Shake The Blues
TTITLE8=True Blues
TTITLE9=Shake Rattle and Roll
TTITLE10=The Handwriting's On The Wall
TTITLE11=Ain't Nobody's Bizness If I Do
TTITLE12=Butter My Biscuit
TTITLE13=What Did I Do Last Night?
EXTD=YEAR:2000
EXTT0=
EXTT1=
EXTT2=
EXTT3=
EXTT4=
EXTT5=
EXTT6=
EXTT7=
EXTT8=
EXTT9=
EXTT10=
EXTT11=
EXTT12=
EXTT13=
PLAYORDER=
